<svg xmlns="http://www.w3.org/2000/svg" xmlns:xlink="http://www.w3.org/1999/xlink" viewBox="0 0 694.59 850.1"><defs><style>.cls-1{fill:url(#linear-gradient);}.cls-2{isolation:isolate;}.cls-3{clip-path:url(#clip-path);}.cls-12,.cls-14,.cls-4{fill:none;}.cls-5,.cls-6{mix-blend-mode:color-burn;}.cls-5{opacity:0.3;fill:url(#linear-gradient-3);}.cls-6{opacity:0.45;fill:url(#linear-gradient-4);}.cls-11,.cls-13,.cls-14,.cls-7,.cls-8,.cls-9{mix-blend-mode:overlay;}.cls-11,.cls-13,.cls-14,.cls-7,.cls-8{opacity:0.6;}.cls-7{fill:url(#Degradado_sin_nombre_1532);}.cls-8{fill:url(#Degradado_sin_nombre_1533);}.cls-9{opacity:0.4;}.cls-10,.cls-13{fill:#fff;}.cls-12,.cls-14{stroke:#fff;stroke-miterlimit:10;stroke-width:0.49px;}</style><linearGradient id="linear-gradient" x1="347.29" y1="850.1" x2="347.29" gradientUnits="userSpaceOnUse"><stop offset="0" stop-color="#121212"/><stop offset="0.11" stop-color="#111f1c"/><stop offset="0.31" stop-color="#0e4235"/><stop offset="0.59" stop-color="#097a5f"/><stop offset="0.92" stop-color="#02c898"/><stop offset="1" stop-color="#00dca7"/></linearGradient><clipPath id="clip-path"><rect class="cls-1" width="694.59" height="850.1"/></clipPath><linearGradient id="linear-gradient-3" x1="328.3" y1="617.95" x2="328.3" y2="922.72" gradientUnits="userSpaceOnUse"><stop offset="0.44" stop-color="#00cc9f" stop-opacity="0.5"/><stop offset="0.5" stop-color="#00cb9d" stop-opacity="0.43"/><stop offset="0.69" stop-color="#00c695" stop-opacity="0.2"/><stop offset="0.83" stop-color="#00c391" stop-opacity="0.05"/><stop offset="0.91" stop-color="#00c28f" stop-opacity="0"/></linearGradient><linearGradient id="linear-gradient-4" x1="334.26" y1="716.99" x2="334.26" y2="972.79" gradientUnits="userSpaceOnUse"><stop offset="0.44" stop-color="#00c28f" stop-opacity="0.5"/><stop offset="0.48" stop-color="#00c28f" stop-opacity="0.45"/><stop offset="0.68" stop-color="#00c28f" stop-opacity="0.21"/><stop offset="0.83" stop-color="#00c28f" stop-opacity="0.06"/><stop offset="0.91" stop-color="#00c28f" stop-opacity="0"/></linearGradient><linearGradient id="Degradado_sin_nombre_1532" x1="6957.96" y1="-4577" x2="6957.96" y2="-4905.81" gradientTransform="translate(7292.22 -4672.53) rotate(180)" gradientUnits="userSpaceOnUse"><stop offset="0.04" stop-color="#fff" stop-opacity="0"/><stop offset="0.16" stop-color="#fff" stop-opacity="0.02"/><stop offset="0.28" stop-color="#fff" stop-opacity="0.06"/><stop offset="0.4" stop-color="#fff" stop-opacity="0.14"/><stop offset="0.52" stop-color="#fff" stop-opacity="0.24"/><stop offset="0.63" stop-color="#fff" stop-opacity="0.38"/><stop offset="0.75" stop-color="#fff" stop-opacity="0.55"/><stop offset="0.86" stop-color="#fff" stop-opacity="0.75"/><stop offset="0.98" stop-color="#fff" stop-opacity="0.98"/><stop offset="0.99" stop-color="#fff"/></linearGradient><linearGradient id="Degradado_sin_nombre_1533" x1="430.23" y1="-4652.33" x2="430.23" y2="-4846.28" gradientTransform="matrix(1, 0, 0, -1, 0, -4672.53)" gradientUnits="userSpaceOnUse"><stop offset="0" stop-color="#fff" stop-opacity="0"/><stop offset="0.13" stop-color="#fff" stop-opacity="0.02"/><stop offset="0.25" stop-color="#fff" stop-opacity="0.06"/><stop offset="0.38" stop-color="#fff" stop-opacity="0.14"/><stop offset="0.5" stop-color="#fff" stop-opacity="0.24"/><stop offset="0.62" stop-color="#fff" stop-opacity="0.38"/><stop offset="0.74" stop-color="#fff" stop-opacity="0.55"/><stop offset="0.86" stop-color="#fff" stop-opacity="0.75"/><stop offset="0.98" stop-color="#fff" stop-opacity="0.98"/><stop offset="0.99" stop-color="#fff"/></linearGradient></defs><g class="cls-2"><g id="OBJECTS"><rect class="cls-1" width="694.59" height="850.1"/><g class="cls-3"><rect class="cls-4" width="694.59" height="850.1"/><path class="cls-5" d="M-121.85,756.43c32-31.11,84.63-50.89,133.76-41.47,33.81,6.49,63.93,21.89,94.84,35s64.93,24.19,99.43,21c75.52-7,123.06-77.71,197.86-88.79,79.57-11.79,162.42,48.21,236.66,21.72C694.31,684.74,720.89,626,778.46,618V922.72H-121.85Z"/><path class="cls-6" d="M-51.7,779.19c41.47,6.82,64.46-.2,98.92-18.81,23.13-12.5,42.65-30.3,70.24-35.7,33.69-6.59,68.49,7.63,94.46,25s48,38.73,78.5,51.31c63.34,26.13,144.45,6.54,201.52-26.74,24.7-14.4,47-31.26,73.92-43.24s60.33-18.64,89.62-10.4c24.08,6.77,41.79,22.46,64.75,31.17v221H-51.7Z"/><path class="cls-7" d="M720.23,109.81c-41.48-13.53-64.46.39-98.92,37.34C598.17,172,578.65,207.29,551.06,218c-33.68,13.08-68.49-15.15-94.46-49.68s-48-76.88-78.49-101.85c-63.35-51.86-144.45-13-201.53,53.08-24.7,28.58-47,62.05-73.91,85.82s-60.34,37-89.62,20.65C-11,212.59-28.75,181.44-51.7,164.16V-95.54H720.23Z"/><path class="cls-8" d="M-7.35,78.05c47-10.49,73.08.3,112.15,28.94,26.23,19.22,48.36,46.61,79.64,54.92,38.19,10.14,77.65-11.74,107.08-38.5s54.41-59.59,89-78.95C452.33,4.27,544.28,34.4,609,85.6c28,22.15,53.31,48.1,83.8,66.52s68.4,28.68,101.6,16c27.3-10.42,47.39-34.56,73.41-47.95V-20.2H-7.35Z"/><g class="cls-9"><path class="cls-10" d="M112.41,165.79a5.12,5.12,0,1,1-5.12-5.11A5.11,5.11,0,0,1,112.41,165.79Z"/><path class="cls-10" d="M488.11,660a5.12,5.12,0,1,1-5.11-5.11A5.11,5.11,0,0,1,488.11,660Z"/><path class="cls-10" d="M144.68,796.92a2.61,2.61,0,1,1-2.61-2.61A2.61,2.61,0,0,1,144.68,796.92Z"/><circle class="cls-10" cx="580.21" cy="653.73" r="5.6"/><path class="cls-10" d="M173.75,755.36a6.43,6.43,0,1,1-6.43-6.43A6.43,6.43,0,0,1,173.75,755.36Z"/><path class="cls-10" d="M118.74,130.87a3.07,3.07,0,1,1-3.07-3.07A3.07,3.07,0,0,1,118.74,130.87Z"/><path class="cls-10" d="M567.83,699.6a3.07,3.07,0,1,1-3.07-3.07A3.07,3.07,0,0,1,567.83,699.6Z"/><circle class="cls-10" cx="47.4" cy="149.77" r="1.84"/><path class="cls-10" d="M633.22,489.56a1.84,1.84,0,1,1-1.84-1.84A1.84,1.84,0,0,1,633.22,489.56Z"/><path class="cls-10" d="M231.59,704.14a1.8,1.8,0,1,1-1.8-1.8A1.8,1.8,0,0,1,231.59,704.14Z"/><path class="cls-10" d="M64.27,671.46a3.78,3.78,0,1,1-3.78-3.78A3.78,3.78,0,0,1,64.27,671.46Z"/><circle class="cls-10" cx="584.94" cy="540.58" r="1.84"/></g><g class="cls-11"><line class="cls-12" x1="-101.86" y1="888.19" x2="192.57" y2="593.77"/><path class="cls-10" d="M194.55,596a2.95,2.95,0,1,0-4.17,0A3,3,0,0,0,194.55,596Z"/></g><g class="cls-11"><line class="cls-12" x1="574.5" y1="293.84" x2="814.68" y2="53.65"/><path class="cls-10" d="M576.68,295.82a2.95,2.95,0,1,1,0-4.17A2.94,2.94,0,0,1,576.68,295.82Z"/></g><g class="cls-11"><line class="cls-12" x1="504.51" y1="881.88" x2="744.69" y2="641.7"/></g><g class="cls-11"><line class="cls-12" x1="544.33" y1="914.4" x2="784.51" y2="674.22"/></g><g class="cls-11"><line class="cls-12" x1="173.78" y1="273.04" x2="540.37" y2="-93.56"/><path class="cls-10" d="M176,275a2.95,2.95,0,1,1,0-4.17A2.94,2.94,0,0,1,176,275Z"/></g><g class="cls-11"><line class="cls-12" x1="336.32" y1="156.01" x2="702.91" y2="-210.58"/><path class="cls-10" d="M338.51,158a2.95,2.95,0,1,1,0-4.17A3,3,0,0,1,338.51,158Z"/></g><g class="cls-11"><line class="cls-12" x1="-52.14" y1="917.74" x2="162.66" y2="702.94"/><path class="cls-10" d="M164.64,705.13a2.95,2.95,0,1,0-4.17,0A3,3,0,0,0,164.64,705.13Z"/></g><path class="cls-13" d="M535.21,701a15.6,15.6,0,1,1-15.6-15.6A15.59,15.59,0,0,1,535.21,701Z"/><circle class="cls-14" cx="519.61" cy="700.96" r="30.68" transform="translate(-228.69 252.2) rotate(-22.5)"/><circle class="cls-13" cx="69.59" cy="231.56" r="15.6"/><circle class="cls-14" cx="69.59" cy="231.56" r="30.68"/><path class="cls-13" d="M563.25,70a22.18,22.18,0,1,1,9-30A22.18,22.18,0,0,1,563.25,70Z"/><circle class="cls-14" cx="552.73" cy="50.46" r="33.54" transform="translate(456.85 597.15) rotate(-85.27)"/></g></g></g></svg>